<?xml version="1.0" standalone="yes"?>
<svg xmlns="http://www.w3.org/2000/svg" width="1254" height="1254">
<path style="fill:#060715; stroke:none;" d="M0 0L0 1254L1254 1254L1254 0L0 0z"/>
<path style="fill:#dc0622; stroke:none;" d="M373 213C361.038 213.977 347.434 219.525 337.3 225.836C334.777 227.408 328.31 230.441 327.457 233.474C326.71 236.129 329.95 239.674 331 242C325.449 239.853 321.465 235.313 316 233L318 229C300.642 218.31 283.07 206.638 263 201.769C256.166 200.11 247.125 196.874 240.67 201.264C235.061 205.079 235.002 210.866 235 217C234.996 226.173 235.206 235.02 237.255 244C240.117 256.548 241.799 269.767 246.38 281.911C249.522 290.24 253.011 298.515 256.772 306.576C258.254 309.753 260.391 312.583 261.363 316C262.996 321.746 261.543 328.113 262.174 334C263.585 347.183 267.111 359.632 272.771 371.576C278.457 383.577 287.024 394.336 296.985 402.995C300.534 406.08 310.956 411.031 311.36 416.104C311.637 419.583 309.413 423.76 308.333 427C305.757 434.729 303.183 442.416 300.203 450C290.697 474.195 278.743 496.451 265.46 518.739C260.176 527.604 251.108 536.447 247.422 546C244.198 554.358 258.483 558.557 258.579 566C258.618 569.097 255.719 572.397 254.309 575C250.768 581.532 246.866 588.154 244 595C236.246 589.092 228.506 582.056 223 574C223.027 576.229 224.323 578.445 223.963 580.701C223.475 583.759 220.514 586.699 218.917 589.261C215.134 595.327 211.474 601.625 208.248 608.004C200.33 623.663 194.339 640.782 191 658C186.338 656.794 181.171 656.411 177 653.853C153.175 639.241 156.174 607.207 164.948 584.985C172.045 567.009 187.124 553.17 198.525 538C208.693 524.469 219.376 509.899 225.181 493.83C237.973 458.414 232.263 408.591 198.001 387.13C190.783 382.609 182.601 377.326 174 376.181C153.692 373.476 131.656 374.142 114.884 387.475C109.037 392.124 102.942 398.407 101.38 406.004C98.7064 419 109.462 430.847 122 432.699C140.424 435.42 168.474 428.687 175.695 453C176.8 456.719 177.632 461.118 177.741 465C177.96 472.866 174.593 481.056 171.255 487.999C162.479 506.254 147.825 520.816 136.076 537.116C107.614 576.602 94.1878 629.404 124.209 672C129.428 679.405 136.393 685.485 143.576 690.921C156.515 700.715 173.15 704.986 189 707C189.946 729.027 201.441 749.76 199.91 772C198.63 790.606 188.713 806.95 185.465 825C182.266 842.769 188.207 865.387 195.53 881.572C199.559 890.476 203.137 901.993 212 907.382C215.987 909.806 221.542 907.793 226 908.089C237.335 908.843 248.599 908 260 908C265.159 908 270.539 908.735 274.11 904.227C281.261 895.202 275.203 882.763 267.282 876.878C264.519 874.826 260.901 874.156 258.498 871.606C255.168 868.07 253.41 861.762 253.26 857C252.856 844.165 264.844 836.25 272.996 828C285.211 815.638 295.469 800.515 303.247 785C306.167 779.174 309.447 773.456 312.229 767.576C313.506 764.878 314.052 761.871 317.109 760.603C319.752 759.507 323.187 759.958 326 759.575C333.673 758.53 343.836 753.317 348.427 762.005C352.181 769.109 345.076 776.559 345.079 784C345.083 795.978 357.52 806.674 366.615 812.826C371.936 816.426 379.859 815 386 815L430 815C435.103 815 445.106 816.921 449.215 813.401C456.043 807.549 454.666 797.45 449.606 791.004C441.842 781.11 428.874 777.502 417 776C420.848 767.748 429.57 762.126 435.181 755C450.296 735.805 459.441 714.159 451.481 690C449.037 682.584 445.233 675.406 440.795 669C437.253 663.888 432.454 659.173 431 653C420.124 655.679 409.134 656 398 656C399.948 647.813 397.926 641.618 389 640C389.927 633.123 392.991 626.831 394 620C405.184 620 416.918 621.007 428 619.421C431.248 618.955 435.767 619.06 438.501 617.012C444.193 612.748 445.575 599.45 447.67 593C452.394 578.451 456.34 563.694 460.558 549C463.356 539.251 467.171 529.154 468 519C454.482 522.203 442.19 528.391 428 529L428 527C440.599 526.965 452.863 522.249 464.155 517.027C484.294 507.714 503.719 495.499 521 481.539C529.543 474.638 537.845 466.137 547 460.148C552.521 456.537 558.77 459.436 564.576 457.196C571.701 454.447 573.133 449.05 578.39 444.585C581.288 442.122 585.481 441.529 588.571 439.211C597.582 432.448 595.819 422.789 594 413C597.307 415.919 597.895 418.671 598 423C612.005 415.899 624.344 401.971 636.424 391.961C640.423 388.647 644.217 383.867 649 381.688C654.146 379.342 661.482 383.061 667 382.946C675.094 382.777 681.806 379.06 689 376C679.766 387.395 663.596 384.6 651 383C642.209 393.894 628.946 402.731 618.089 411.559C613.796 415.05 607.965 418.341 605 423L975 423L1070 423C1084.61 423 1101.57 420.32 1114.29 429.133C1129.23 439.493 1129 454.637 1129 471L1129 524L1129 768L1129 822C1129 834.766 1128.59 848.175 1118.89 857.885C1108.38 868.388 1093.57 867 1080 867L1002 867C929.899 867 857.99 868 786 868C754.697 868 723.296 867.774 692 867.995C686.957 868.031 682.043 866.916 677 867.015C648.319 867.58 619.796 867 591 867C575.631 867 561.19 868.771 551.133 854.286C543.019 842.598 544 828.489 544 815L544 745L544 467C538.828 469.909 534.632 474.646 530.004 478.371C527.376 480.486 523.589 482.416 521.938 485.478C519.048 490.839 521 501.028 521 507L521 559L521 794C521 825.28 514.282 863.476 544.464 883.622C559.074 893.374 577.344 891 594 891L691 891L980 891L1068 891C1083.45 891 1100.95 893.214 1116 889.134C1132 884.794 1145.85 870.891 1150.46 854.911C1153.19 845.434 1152 834.744 1152 825L1152 774L1152 462L1152 395C1152 376.974 1152.21 359.59 1138.74 345.704C1116.75 323.043 1082.62 329 1054 329L880 329L827 329C819.461 329 809.39 327.237 802.133 329.318C799.726 330.008 798.77 331.93 797.707 334.019C796.182 337.017 793.94 340.565 795.28 344C797.376 349.374 806.128 353.679 801.663 360C798.377 364.651 793.287 369.187 789 372.922C787.248 374.448 785.458 375.95 783 375.248C777.993 373.819 775.473 366.899 770 366.708C764.438 366.514 757.76 371.153 752 372C751.962 376.602 752.409 384.79 749.972 388.772C748.865 390.581 747.005 391.398 744.995 391.772C739.774 392.741 727.544 393.683 723.148 390.397C717.646 386.283 721.899 379.482 719.397 374.314C718.245 371.935 715.225 371.691 712.999 370.9C708.896 369.441 705.197 367.209 701 366C702.111 361.931 703.803 358.058 704.96 354C705.717 351.342 705.964 348.755 705.996 346C706.022 343.777 706.277 341.225 705.682 339.059C704.55 334.936 700.532 334.867 697 335.684C689.135 337.505 683.907 343.903 678 348.853C675.655 350.817 673.118 352.3 670.001 351.238C662.004 348.516 659.758 339.276 661.943 332C663.066 328.258 665.813 323.598 670 324C672.258 319.693 675.512 317.325 680 315.359C683.322 313.904 688.291 313.222 689.248 308.985C690.316 304.26 683.566 301.014 680 299.85C669.981 296.581 656.126 299.626 647.3 304.866C637.277 310.816 630.282 321.636 628.438 333C627.559 338.42 628.775 348.147 625.397 352.535C622.823 355.879 618.37 358.016 615.004 360.464C606.985 366.293 598.926 372.13 590.729 377.706C587.159 380.135 579.259 383.45 577.407 387.416C575.853 390.743 584.199 395.579 586 398C579.747 396.569 575.021 391.987 568.961 390.171C556.812 386.529 545.146 391.677 534 396C543.218 383.6 558.673 390.128 571 386.487C576.097 384.982 580.736 380.47 585 377.421C592.946 371.741 600.988 366.222 609.001 360.66C613.495 357.54 620.935 354.027 623.972 349.402C626.359 345.769 625.656 337.363 626 333C620.887 333 611.854 334.741 607.39 331.976C605.166 330.599 604.047 327.853 602.211 326.043C597.786 321.683 592.179 319.241 586 319.043C580.452 318.866 576.964 322.13 571.911 322.788C565.027 323.684 559.718 320.677 553.428 325.634C548.284 329.688 547.287 335.598 543.008 339.961C535.248 347.872 527.363 353.971 523.749 365C519.595 377.679 521 391.864 521 405L519 405L519 400C511 403.7 503.824 409.379 495.91 413.36C486.459 418.113 476.309 420.873 466 423C466.562 426.025 466.936 428.922 467 432C461.691 425.902 460.629 412.891 459 405C466.888 403.435 473.197 399.133 480.004 395.08C506.946 379.037 530.05 347.759 526 315L513 318C518.445 311.394 523.132 314.542 530.039 313.185C533.448 312.515 536.59 310.845 540 310.12C549.638 308.074 559.206 308 569 308L569 305C555.445 303.287 538.321 304.533 526 311C524.97 307.37 522.152 301.824 523.505 298.093C524.734 294.702 529.137 292.385 532 290.541C540.518 285.052 550.281 281.652 560 279C557.103 275.032 552.041 277.436 548 278.745C537.242 282.231 529.103 288.655 520 295C516.244 288.322 508.75 284.558 505.303 277.985C502.618 272.865 502.245 266.443 500.302 261C496.782 251.145 491.028 241.656 483.91 234C477.288 226.876 469.904 221.465 461.579 216.514C457.799 214.265 451.879 213.168 449.879 208.866C447.16 203.019 446.77 195.262 445.116 189C442.141 177.738 437.961 166.417 432.752 156C429.508 149.514 425.146 140.891 417.996 138.01C408.616 134.23 403.328 144.507 398.735 150.718C389.926 162.633 384.255 177.146 379.308 191C376.751 198.161 373.666 205.359 373 213z"/>
<path style="fill:#f9c01c; stroke:none;" d="M720 244C715.457 244.615 711.191 245.957 707.015 247.865C704.887 248.837 702.301 251.01 699.83 250.643C694.617 249.869 692.372 243.412 687.715 241.619C681.505 239.227 674.687 250.295 671.019 253.961C669.285 255.694 666.862 257.575 666.377 260.13C665.374 265.403 673.124 268.96 675.292 273C677.52 277.15 673.712 284.097 671.895 287.981C667.981 296.347 659.798 289.46 654.742 294.603C652.867 296.511 653.059 299.545 653 302C662.577 300.372 672.535 296.27 682 301.139C684.707 302.532 689.648 305.223 688.654 308.985C687.034 315.117 676.329 315.092 672.407 319.529C670.133 322.103 670.946 325.842 671 329C668.077 329.717 663.855 331.052 662.027 333.648C657.526 340.041 664.056 350.786 671 351.752C673.631 352.119 675.916 351.239 678 349.682C684.015 345.187 688.597 338.744 696 336.25C700.599 334.7 705.003 335.649 705.852 341.005C706.109 342.625 706.025 344.365 705.985 346C705.927 348.409 705.621 350.68 704.96 353C703.71 357.386 701.775 361.496 701 366C704.702 367.541 708.215 369.561 712 370.9C714.381 371.742 717.465 372.019 718.972 374.314C722.052 379.005 717.544 386.374 722.318 390.397C726.61 394.013 738.665 392.292 743.999 391.956C746.188 391.818 748.62 391.53 749.972 389.566C752.649 385.68 751.987 376.619 752 372C756.134 371.639 760.121 370.565 764 369.076C766.199 368.231 768.555 366.727 771 367.418C775.978 368.825 779.254 376.912 785 376.093C787.419 375.749 789.335 373.57 791 371.981C794.857 368.299 804.942 361.182 803.353 355C802.078 350.043 795.863 347.185 795.379 342C794.88 336.665 799.737 330.737 800 325C804.278 324.912 813.744 325.475 817.107 322.682C819.054 321.065 818.956 318.291 818.995 315.996C819.085 310.844 821.132 299.049 817.682 294.893C814.571 291.146 807.315 293.276 803.225 291.4C799.349 289.623 796.959 281.239 795.561 277.424C793.132 270.796 801.987 267.43 803.427 261.754C804.054 259.284 802.403 257.518 800.857 255.83C797.291 251.938 793.914 247.265 789.829 243.901C780.762 236.433 778.084 249.822 769.834 250.132C764.266 250.341 757.852 244.811 752 244C752 239.253 753.43 231.663 750.86 227.475C747.309 221.687 734.717 223.836 729 224.015C726.383 224.098 723.568 224.287 721.742 226.434C718.351 230.42 720 239.106 720 244z"/>
<path style="fill:#dc0622; stroke:none;" d="M748.667 225.333C748.222 225.778 749.278 225.722 749.333 225.667C749.778 225.222 748.722 225.278 748.667 225.333M689 242L690 243L689 242M781 242L782 243L781 242M787.667 242.333C787.222 242.778 788.278 242.722 788.333 242.667C788.778 242.222 787.722 242.278 787.667 242.333M690 243L691 244L690 243M789 243L790 244L789 243M680 244L681 245L680 244M691 244L692 245L691 244M778 244L779 245L778 244M679 245L680 246L679 245M692 245L693 246L692 245M777 245L778 246L777 245M678 246L679 247L678 246M693 246L694 247L693 246M759.667 246.333C759.222 246.778 760.278 246.722 760.333 246.667C760.778 246.222 759.722 246.278 759.667 246.333M776 246L777 247L776 246M677 247L678 248L677 247M694 247L695 248L694 247M775 247L776 248L775 247M792 247L793 248L792 247M676 248L677 249L676 248M695 248L696 249L695 248M764.667 248.333C764.222 248.778 765.278 248.722 765.333 248.667C765.778 248.222 764.722 248.278 764.667 248.333M774 248L775 249L774 248M675 249L676 250L675 249M696.667 249.333C696.222 249.778 697.278 249.722 697.333 249.667C697.778 249.222 696.722 249.278 696.667 249.333M766.667 249.333C766.222 249.778 767.278 249.722 767.333 249.667C767.778 249.222 766.722 249.278 766.667 249.333M674 250L675 251L674 250M698 250L699 251L698 250M768 250L769 251L768 250M771 250L772 251L771 250M795 250L796 251L795 250M673 251L674 252L673 251M699 251L700 252L699 251M701 251L702 252L701 251M796 251L797 252L796 251M672 252L673 253L672 252M797 252L798 253L797 252M671 253L672 254L671 253M798 253L799 254L798 253M670 254L671 255L670 254M799 254L800 255L799 254M669 255L670 256L669 255M800 255L801 256L800 255M668 256L669 257L668 256M801 256L802 257L801 256M667 257L668 258L667 257M802 257L803 258L802 257M802.333 263.667C802.278 263.722 802.222 264.778 802.667 264.333C802.722 264.278 802.778 263.222 802.333 263.667M667 264L668 265L667 264M668 265L669 266L668 265M801 265L802 266L801 265M669 266L670 267L669 266M800 266L801 267L800 266M670 267L671 268L670 267M799 267L800 268L799 267z"/>
<path style="fill:#060715; stroke:none;" d="M483.942 268.681C474.33 269.614 474.208 282.039 475.9 289C476.499 291.467 477.645 297.364 481.066 297.364C483.404 297.364 483.726 294.733 483.485 292.981C482.847 288.332 479.886 283.817 481.862 279.043C483.019 276.249 486.504 274.716 487.252 271.85C487.841 269.597 485.935 268.488 483.942 268.681z"/>
<path style="fill:#dc0622; stroke:none;" d="M671 268L672 269L671 268M798 268L799 269L798 268M672 269L673 270L672 269M797.333 269.667C797.278 269.722 797.222 270.778 797.667 270.333C797.722 270.278 797.778 269.222 797.333 269.667M673 270L674 271L673 270M674 271L675 272L674 271M796 271L797 272L796 271M675 272L676 273L675 272M795 272L796 273L795 272M676 273L677 274L676 273M794 273L795 274L794 273z"/>
<path style="fill:#060715; stroke:none;" d="M729 276.518C694.909 283.802 697.625 335.175 731 341.076C735.183 341.816 738.833 341.9 743 340.985C747.744 339.943 752.084 337.96 755.996 335.073C759.694 332.344 762.707 328.938 765.07 325C780.017 300.098 756.596 270.621 729 276.518z"/>
<path style="fill:#dc0622; stroke:none;" d="M794 276L795 277L794 276M721.667 278.333C721.222 278.778 722.278 278.722 722.333 278.667C722.778 278.222 721.722 278.278 721.667 278.333M720 279L721 280L720 279M718.667 280.333C718.222 280.778 719.278 280.722 719.333 280.667C719.778 280.222 718.722 280.278 718.667 280.333M717 281L718 282L717 281M756 281L757 282L756 281M716 282L717 283L716 282M757 282L758 283L757 282M715 283L716 284L715 283M758 283L759 284L758 283M713.667 284.333C713.222 284.778 714.278 284.722 714.333 284.667C714.778 284.222 713.722 284.278 713.667 284.333M759 284L760 285L759 284M712.333 285.667C712.278 285.722 712.222 286.778 712.667 286.333C712.722 286.278 712.778 285.222 712.333 285.667M760 285L761 286L760 285M761 286L762 287L761 286M711 287L712 288L711 287M762 287L763 288L762 287M710 288L711 289L710 288M763 288L764 289L763 288M709 289L710 290L709 289M764.333 289.667C764.278 289.722 764.222 290.778 764.667 290.333C764.722 290.278 764.778 289.222 764.333 289.667M708.333 290.667C708.278 290.722 708.222 291.778 708.667 291.333C708.722 291.278 708.778 290.222 708.333 290.667M765 291L766 292L765 291M707.333 292.667C707.278 292.722 707.222 293.778 707.667 293.333C707.722 293.278 707.778 292.222 707.333 292.667M766.333 292.667C766.278 292.722 766.222 293.778 766.667 293.333C766.722 293.278 766.778 292.222 766.333 292.667M706.333 294.667C706.278 294.722 706.222 295.778 706.667 295.333C706.722 295.278 706.778 294.222 706.333 294.667M767.333 294.667C767.278 294.722 767.222 295.778 767.667 295.333C767.722 295.278 767.778 294.222 767.333 294.667M817 294L818 295L817 294z"/>
<path style="fill:#060715; stroke:none;" d="M510 307C515.166 305.564 519.196 302.078 521 297L520 296C515.02 298.153 511.443 301.717 510 307M394 323C400.986 322.462 403.244 315.811 409.001 312.533C414.28 309.527 418.726 309.984 424 312.594C426.539 313.851 430.65 317.27 433.667 316.263C439.416 314.344 430.03 306.582 427.999 305.558C413.662 298.327 394.365 305.947 394 323M488 350C492.41 352.058 497.115 354.022 501.985 352.107C504.402 351.156 508.796 347.566 506.149 344.658C504.242 342.563 501.095 344.799 499 345.273C495.833 345.99 492.783 344.813 491.183 341.891C487.252 334.716 497.264 327.662 494.254 320.044C490.664 310.958 476.385 319.073 471.005 322.352C468.823 323.681 466.408 325.4 465.712 328.015C463.378 336.783 477.557 336.166 481.218 340.56C483.548 343.357 481.757 348.11 480.471 351C479.514 353.15 478.233 355.182 476.671 356.945C471.629 362.636 463.302 365.661 456 362.853C453.27 361.803 450.935 359.315 448.059 358.736C445.987 358.319 444.26 359.685 444.89 361.873C446.336 366.892 454.613 368.594 459 368.91C471.837 369.835 484.347 362.652 488 350M662 333C667.463 330.64 671.328 328.405 670 322C665.126 324.294 662.598 327.633 662 333z"/>
<path style="fill:#dc0622; stroke:none;" d="M817 322L818 323L817 322M764 326L765 327L764 326M709 327L710 328L709 327M670 328L671 329L670 328M710 328L711 329L710 328M667 330L668 331L667 330M761 330L762 331L761 330M712 331L713 332L712 331M760 331L761 332L760 331M713 332L714 333L713 332M759 332L760 333L759 332M714 333L715 334L714 333M758 333L759 334L758 333M715.667 334.333C715.222 334.778 716.278 334.722 716.333 334.667C716.778 334.222 715.722 334.278 715.667 334.333M717 335L718 336L717 335M755 335L756 336L755 335z"/>
<path style="fill:#060715; stroke:none;" d="M605 336C604.098 344.096 595.389 351.443 587.174 346.821C584.193 345.143 582.598 341.867 581 339C578.912 341.414 577.586 344.5 574.942 346.436C571.806 348.733 567.602 348.86 564 350C569.132 353.887 577.06 351.478 580 346C591.443 352.818 607.223 352.755 608 336L605 336z"/>
<path style="fill:#dc0622; stroke:none;" d="M718 336L719 337L718 336M754 336L755 337L754 336M719.667 337.333C719.222 337.778 720.278 337.722 720.333 337.667C720.778 337.222 719.722 337.278 719.667 337.333M721.667 338.333C721.222 338.778 722.278 338.722 722.333 338.667C722.778 338.222 721.722 338.278 721.667 338.333M723.667 339.333C723.222 339.778 724.278 339.722 724.333 339.667C724.778 339.222 723.722 339.278 723.667 339.333z"/>
<path style="fill:#060715; stroke:none;" d="M347 367C357.054 365.97 367.342 359.222 377 356C394.624 350.121 412.432 347 431 347C427.653 341.837 416.595 343.878 411 344.015C394.461 344.42 377.182 350.709 362 356.8C356.557 358.984 348.895 360.941 347 367z"/>
<path style="fill:#f9c01c; stroke:none;" d="M564 349L565 350L564 349z"/>
<path style="fill:#060715; stroke:none;" d="M365 395C372.226 393.905 378.18 387.295 384 383.141C393.798 376.149 404.181 370.493 415 365.258C419.983 362.848 429.056 361.586 431 356C413.426 359.656 396.676 369.369 382 379.344C375.925 383.473 368.219 388.24 365 395z"/>
<path style="fill:#f9c01c; stroke:none;" d="M999 363.573C982.592 367.402 987.032 395.16 1004 391.467C1022.15 387.517 1017 359.374 999 363.573M1042.01 364.703C1026.06 370.243 1034.77 396.838 1051 391.029C1068.33 384.825 1059.79 358.53 1042.01 364.703M1086 364.858C1069.15 371.71 1080.01 396.683 1097 390.107C1113.35 383.774 1102.5 358.151 1086 364.858M586 398L587 399L586 398M593.333 411.667C593.278 411.722 593.222 412.778 593.667 412.333C593.722 412.278 593.778 411.222 593.333 411.667z"/>
<path style="fill:#060715; stroke:none;" d="M568 427C570.621 429.987 573.15 431.951 577 433C575.047 429.006 572.538 426.737 568 427z"/>
<path style="fill:#dc0622; stroke:none;" d="M596.001 486.529C579.548 490.351 580 507.754 580 521L580 617C580 629.942 576.912 646.326 586.235 656.812C591.783 663.053 599.295 663 607 663L636 663L738 663L769 663C774.452 663 780.682 663.812 786 662.443C802.557 658.179 802 642.595 802 629L802 532C802 521.118 805.751 502.095 797.61 493.619C785.566 481.081 761.859 486 746 486L645 486L613 486C607.499 486 601.391 485.277 596.001 486.529M846.174 506.728C839.049 509.587 839.187 518.253 846.184 521.258C849.372 522.627 853.614 522 857 522L879 522L1026 522L1067 522C1072.73 522 1079.28 523.029 1083.61 518.387C1088.3 513.349 1083.86 507.023 1077.99 506.189C1063.88 504.186 1048.26 506 1034 506L902 506L864 506C858.635 506 851.225 504.701 846.174 506.728z"/>
<path style="fill:#f9c01c; stroke:none;" d="M244 595C248.055 588.124 251.478 580.926 255.427 574C256.888 571.439 259.672 568.159 259.122 565C257.962 558.335 247.636 555.192 247.578 548.005C247.561 545.898 249.067 543.789 250 542C246.95 541.615 243.28 540.445 240.29 541.593C233.261 544.289 227.528 557.077 223.917 563.247C222.401 565.839 220.652 568.708 221.322 571.845C221.888 574.501 224.086 576.922 225.75 578.975C230.494 584.831 237.312 591.53 244 595z"/>
<path style="fill:#dc0622; stroke:none;" d="M238 542L239 543L238 542M237 543L238 544L237 543M236 544L237 545L236 544M234 547L235 548L234 547M232 550L233 551L232 550M230 553L231 554L230 553M228 556L229 557L228 556z"/>
<path style="fill:#f9c01c; stroke:none;" d="M262 625C257.706 623.203 253.929 620.824 250 618.348C248.141 617.177 245.639 615.244 243.275 615.828C239.23 616.826 237.781 625.656 236.667 629C232.625 641.121 223.845 658.203 229.367 671C231.318 675.521 234.81 679.137 239 681.648C251.013 688.846 274.181 700.484 287.999 692.772C295.995 688.309 298.032 678.976 300.947 671C304.119 662.319 308.629 653.153 310 644L284 636C285.105 632.18 286.224 623.186 289.564 620.816C291.779 619.245 294.913 621.148 297 622.082C302.597 624.584 308.069 627.378 314 629C317.975 620.513 323.175 610.385 324 601L312 596C313.513 587.849 314.399 578.232 309.612 571.015C308.019 568.614 304.828 564.366 301.418 566.137C293.691 570.149 299.115 590.743 286.015 586.948C284.662 586.556 283.339 585.573 282.345 584.606C277.47 579.864 280.454 572.52 282.38 567C283.083 564.984 285.584 560.881 283.343 559.067C281.424 557.515 277.926 558.914 276 559.728C269.495 562.479 264.944 567.119 261.228 573C258.531 577.27 249.921 587.732 252.736 592.911C255.637 598.247 264.756 600.098 266.363 606.09C267.776 611.354 262.735 619.568 262 625z"/>
<path style="fill:#dc0622; stroke:none;" d="M225 561L226 562L225 561M845.185 564.703C838.063 567.461 839.996 575.717 846.171 578.262C849.404 579.594 853.58 579 857 579L879 579L1025 579L1067 579C1071.8 579 1079.11 580.317 1082.89 576.656C1088.1 571.618 1084.56 564.998 1078 564.133C1063.83 562.267 1048.3 564 1034 564L902 564L863 564C857.61 564 850.28 562.73 845.185 564.703M222 566L223 567L222 566z"/>
<path style="fill:#f9c01c; stroke:none;" d="M369 638C363.11 636.329 351.29 631.605 351.149 641.976C351.125 643.701 351.607 645.342 352 647C342.702 651.878 340.633 665.563 337.925 675C335.05 685.02 328.837 695.493 328.169 706C327.352 718.841 341.01 723.189 351 725.424C355.547 726.441 359.528 727.407 363.999 725.467C369.116 723.247 372.349 719.198 374.101 714C377.915 702.687 381.4 691.26 385.345 680C388.229 671.768 391.538 666.251 387 658C391.594 657.269 395.402 653.265 393.243 648.225C391.415 643.957 384.118 644.935 383.643 639.892C383.346 636.734 385.354 632.937 386.333 630C388.825 622.526 390.442 612.66 394.843 606.09C396.922 602.988 400.948 601.336 402.397 597.826C404.661 592.34 403.996 582.944 404 577C400.935 576.126 397.293 573.902 394.039 574.423C389.056 575.221 382.259 585.346 381.353 590C380.438 594.704 382.373 599.144 380.957 604C377.603 615.498 372.708 626.604 369 638M329 603C326.862 610.48 323.492 617.771 320.6 625C319.456 627.861 317.14 631.686 317.528 634.867C317.907 637.977 321.527 639.008 324.001 639.996C330.934 642.767 338.485 645.824 346 646C346.023 639.291 348.029 631.374 356 630.268C359 629.852 362.776 631.77 365.49 629.958C369.175 627.496 370.399 619.068 371 615C356.114 614.351 343.356 605.47 329 603M440 614C437.464 618.614 432.841 618.581 428 619.271C416.86 620.859 405.24 620 394 620C392.44 626.744 389.568 633.04 389 640C397.451 642.512 399.518 647.796 398 656C407.12 656 415.969 655.832 425 654.41C429.109 653.763 433.627 653.467 436.826 650.518C442.298 645.474 443.345 634.886 445.29 628C446.068 625.245 447.239 622.016 446.531 619.13C445.743 615.917 442.87 614.721 440 614z"/>
<path style="fill:#dc0622; stroke:none;" d="M443.667 615.333C443.222 615.778 444.278 615.722 444.333 615.667C444.778 615.222 443.722 615.278 443.667 615.333M845.185 624.703C838.417 627.324 839.413 636.58 846.104 638.567C849.455 639.562 853.542 639 857 639L879 639L1025 639L1066 639C1071.3 639 1078.6 640.412 1082.83 636.517C1088.18 631.58 1084.63 625.007 1078 624.133C1063.83 622.267 1048.3 624 1034 624L902 624L863 624C857.61 624 850.28 622.73 845.185 624.703M438.333 648.667C438.278 648.722 438.222 649.778 438.667 649.333C438.722 649.278 438.778 648.222 438.333 648.667M437 650L438 651L437 650M435.667 651.333C435.222 651.778 436.278 651.722 436.333 651.667C436.778 651.222 435.722 651.278 435.667 651.333M349 704C350.856 689.704 360.58 676.517 361 662C358.649 662.179 356.519 662.257 354.972 664.318C352.137 668.094 350.927 674.518 349.59 679C347.679 685.402 344.831 691.579 343.093 698C341.89 702.446 341.463 706.738 346.059 709.141C349.651 711.02 355.846 713.861 359.867 712.127C363.103 710.731 363.979 707.029 365 703.999C367.026 697.987 369.168 692.057 371.039 686C371.975 682.969 378.117 671.425 372.726 669.752C368.069 668.306 366.227 678.126 365.478 681C364.041 686.511 361.805 691.578 360.165 697C359.443 699.388 359.061 702.535 356.697 703.933C354.488 705.239 351.371 704.291 349 704M596.001 700.529C587.787 702.434 581.514 709.797 580.301 718C579.106 726.082 580 734.84 580 743L580 791C580 801.312 579.947 811.915 589.429 818.517C594.771 822.237 601.783 822 608 822L641 822L739 822C754.708 822 773.677 824.812 788.911 820.443C799.813 817.316 802 805.5 802 796L802 732C802 720.002 803.115 709.868 791.576 702.764C786.098 699.392 779.151 700 773 700L740 700L643 700L613 700C607.498 700 601.392 699.279 596.001 700.529M857.001 700.465C848.924 701.938 842.072 707.745 840.468 716.004C838.924 723.956 840 732.922 840 741L840 790C840 800.556 839.156 812.223 849.289 818.911C854.918 822.626 862.597 822 869 822L906 822L1019 822L1053 822C1059.12 822 1066.06 822.896 1072 821.211C1078.68 819.314 1085.49 815.059 1087.43 808C1089.59 800.154 1088 790.102 1088 782L1088 728C1088 717.705 1088.02 708.695 1078 702.858C1071.61 699.133 1064.11 700 1057 700L1018 700L910 700L876 700C869.784 700 863.137 699.345 857.001 700.465M336 850C326.592 852.781 314.79 851 305 851C308.285 864.333 310.452 878.449 312.715 892C313.399 896.1 312.993 905.231 316.589 907.972C318.921 909.751 323.262 909 326 909L349 909C348.282 899.978 346.031 890.908 344.424 882C342.444 871.019 341.021 859.749 338 849C349.729 849 361.33 849.585 373 849.957C377.822 850.111 382.178 849.145 387 850C381.481 869.633 375.965 890.836 373 911L243 911L204 911C197.793 911 190.085 909.789 184.09 911.569C175.406 914.147 176.997 923.933 177 931C177.001 934.143 176.573 937.67 178.514 940.366C181.357 944.314 185.651 943.997 190 944C181.465 988.01 168.248 1031.5 157.373 1075C154.785 1085.36 151.947 1095.64 149.375 1106C148.454 1109.71 146.856 1114.7 150.573 1117.43C154.638 1120.41 162.244 1119 167 1119C172.917 1119 182.111 1120.73 187.405 1117.72C192.319 1114.93 192.439 1109.93 193.735 1105L202.077 1073C203.293 1068.39 204.529 1063.66 205.548 1059C206.149 1056.25 206.296 1052.92 209.228 1051.6C212.504 1050.13 217.488 1051 221 1051L247 1051L339 1051C333.391 1065.87 331.38 1082.58 327.525 1098C326.282 1102.97 322.294 1111.3 325.612 1116.06C328.576 1120.31 335.532 1119 340 1119C346.51 1119 353.448 1119.68 359.91 1118.87C365.894 1118.12 370.688 1116 377 1116C382.198 1116 390.526 1117.51 393.117 1111.48C395.042 1107.01 391.896 1098.63 391 1094C388.23 1079.69 385.699 1065.33 383 1051L469 1051C469.132 1066.78 474.776 1083.49 477.69 1099C478.627 1103.99 478.589 1112.87 482.148 1116.74C484.641 1119.44 488.652 1118.99 492 1119C499.257 1119.01 506.725 1119.5 513.961 1118.95C517.224 1118.69 520.73 1117.23 521.686 1113.79C523.706 1106.52 519.835 1096.18 518.4 1089C514.876 1071.36 511.728 1053.64 508.2 1036C495.75 973.745 484.087 911.327 472 849C475.515 848.997 479.552 849.52 482.231 846.772C485.102 843.827 484.992 839.813 485 836C485.014 829.024 486.105 819.381 476.91 818.133C462.801 816.217 447.246 818 433 818L344 818L304 818C298.73 818 291.331 816.672 286.34 818.514C283.8 819.451 282.426 822.099 280.737 824.039C278.611 826.481 275.654 828.599 274.028 831.424C271.313 836.141 272.593 846.158 278.13 848.401C283.312 850.5 291.469 849 297 849C310.074 849 322.99 848.973 336 850z"/>
<path style="fill:#060715; stroke:none;" d="M428 850C424.876 873.197 417.957 896.213 412.664 919C410.602 927.881 407.745 936.884 407 946L448 946C443.53 921.936 440.714 896.614 434.294 873C432.555 866.603 433.488 854.173 428 850z"/>
<path style="fill:#dc0622; stroke:none;" d="M725 953C740.891 948.889 759.047 949.191 775 953C773.369 945.952 771.115 938.968 769.14 932C768.057 928.177 767.339 923.59 764.995 920.301C758.604 911.334 743.564 909.555 736.475 918.554C733.353 922.517 732.228 928.245 730.859 933C728.94 939.665 726.563 946.244 725 953M900 962L862 962C855.855 962 848.617 960.91 843.174 964.367C830.583 972.365 834 990.367 834 1003C834 1008.96 833.096 1016.5 839.304 1019.86C846.112 1023.54 859.388 1021 867 1021L936 1021C936 1016.67 934.954 1010.68 938.318 1007.32C940.421 1005.21 943.202 1005.06 946 1005C952.367 1004.89 964.64 1002.74 969.566 1007.57C972.95 1010.89 972 1016.69 972 1021L1047 1021L1068 1021C1071.45 1021 1075.26 1021.45 1078.41 1019.77C1085.03 1016.25 1084 1009.43 1084 1003C1084 990.236 1087.96 972.449 1075.28 964.72C1069.32 961.082 1061.69 962 1055 962L1016 962C1016.5 955.642 1017.78 949.355 1016.32 943C1009.87 914.916 973.154 922 952 922C938.806 922 921.602 918.751 910.729 927.788C899.385 937.216 900 948.466 900 962z"/>
<path style="fill:#060715; stroke:none;" d="M917 962L951 962L974 962C980.421 962 991.888 964.212 997.682 961.258C1003.12 958.483 999.781 944.684 995.856 941.843C990.859 938.228 983.794 939 978 939L939 939C933.395 939 925.76 937.629 921.109 941.434C915.257 946.219 917 955.287 917 962M234 944C233.349 951.464 230.436 958.759 228.58 966C224.469 982.044 218.349 999.487 217 1016L333 1016C332.951 1010.07 331.339 1004.77 330.261 999C328.962 992.042 328.47 984.907 326.985 978C324.599 966.895 321.236 955.415 321 944L234 944M356 944C356.053 950.401 358.481 956.617 357.826 963C356.755 973.428 352.456 983.411 352 994C355.359 989.286 355.923 982.571 357.235 977C359.822 966.01 362.171 954.93 365 944L356 944z"/>
<path style="fill:#f9c01c; stroke:none;" d="M716 985C731.041 984.875 745.857 982.644 761 983.015C768.74 983.204 776.302 985.392 784 986C783.222 978.198 779.975 970.486 777.72 963C776.835 960.064 776.391 955.884 774.157 953.603C771.809 951.207 766.151 951.339 763 951.086C754.043 950.366 745.941 950.467 737 950.964C733.484 951.16 728.418 950.845 725.728 953.589C723.471 955.891 723.162 960.038 722.279 963C720.118 970.252 717.108 977.499 716 985z"/>
<path style="fill:#060715; stroke:none;" d="M403 961C399.751 976.7 395.709 992.362 392.113 1008C389.92 1017.54 386.798 1027.23 386 1037L465 1037C464.976 1028.45 462.395 1020.37 460.924 1012C457.928 994.971 454.853 977.856 451 961L403 961z"/>
<path style="fill:#dc0622; stroke:none;" d="M705 1021C715.542 1018.48 726.288 1018.64 737 1017.91C755.652 1016.63 775.666 1016.62 794 1021C792.39 1009.05 786.752 997.911 785 986C778.29 985.47 771.705 983.81 765 983.17C754.193 982.137 742.758 982.802 732 983.83C727.538 984.257 719.448 983.105 715.728 986.027C713.175 988.031 712.876 993.086 711.974 996C709.443 1004.18 706.249 1012.51 705 1021z"/>
<path style="fill:#f9c01c; stroke:none;" d="M939.148 1006.03C933.79 1009.2 936 1020.73 936 1026C936 1031.36 934.15 1041.06 937.028 1045.77C940.613 1051.64 955.117 1049.01 961 1049C963.532 1048.99 966.575 1049.32 968.852 1047.97C974.21 1044.8 972 1033.27 972 1028C972 1022.59 973.804 1013.09 970.821 1008.34C967.071 1002.38 953.033 1004.99 947 1005C944.468 1005.01 941.425 1004.68 939.148 1006.03M695 1055C720.797 1051.74 746.899 1049.3 773 1051.09C783.082 1051.78 792.969 1054.2 803 1055C802.626 1046.82 799.382 1038.82 797.141 1031C796.297 1028.06 795.784 1023.79 793.437 1021.6C789.656 1018.08 777.991 1018.06 773 1018C756 1017.8 738.981 1016.17 722 1018.42C717.478 1019.03 709.05 1018.46 705.51 1021.6C703.024 1023.81 702.446 1027.96 701.579 1031C699.343 1038.83 695.709 1046.88 695 1055z"/>
<path style="fill:#dc0622; stroke:none;" d="M841 1023C840.588 1042.97 840 1062.96 840 1083C840 1094.61 838.918 1104.96 847.755 1113.79C853.044 1119.07 859.997 1119 867 1119L898 1119L1024 1119C1037.62 1119 1060.48 1123.46 1070.91 1112.82C1078.55 1105.02 1077 1095.06 1077 1085L1077 1023L972 1023C972 1029.13 974.223 1040.73 970.397 1045.85C968.811 1047.97 966.534 1048.72 964 1048.94C957.533 1049.51 942.005 1051.47 937.603 1045.77C933.753 1040.78 936 1029.04 936 1023L841 1023M694 1055C691.161 1067.27 685.028 1079.42 684 1092C679.473 1092 673.844 1091.1 670.059 1094.15C663.521 1099.41 666.525 1113.87 673.3 1117.68C676.693 1119.59 681.26 1119 685 1119L709 1119L784 1119C795.146 1119 809.202 1121.29 819.999 1118.44C828.78 1116.12 832.843 1102.45 826.772 1095.48C823.346 1091.55 818.745 1092 814 1092C813.242 1083.32 809.698 1074.38 807.291 1066C806.409 1062.93 805.91 1058.13 803.297 1055.99C797.659 1051.36 784.899 1052.48 778 1051.58C750.492 1047.95 721.274 1051.55 694 1055z"/>
</svg>
